<mxfile host="app.diagrams.net" modified="2023-07-03T22:29:09.013Z" agent="Mozilla/5.0 (X11; Linux x86_64) AppleWebKit/537.36 (KHTML, like Gecko) Chrome/114.0.0.0 Safari/537.36" etag="7PvYHTqisXx8LIrCRCSv" version="21.5.2" type="device">
  <diagram name="PÃ¡gina-1" id="yz8X_2shkTcoAMQwI0z6">
    <mxGraphModel dx="1776" dy="534" grid="1" gridSize="10" guides="1" tooltips="1" connect="1" arrows="1" fold="1" page="1" pageScale="1" pageWidth="827" pageHeight="1169" math="0" shadow="0">
      <root>
        <mxCell id="0" />
        <mxCell id="1" parent="0" />
        <mxCell id="Jra4S1xzF9EYpOf9x9we-1" value="OrderService" style="rounded=1;whiteSpace=wrap;html=1;fillColor=#fff2cc;strokeColor=#d6b656;verticalAlign=middle;" vertex="1" parent="1">
          <mxGeometry x="100" y="320" width="120" height="120" as="geometry" />
        </mxCell>
        <mxCell id="Jra4S1xzF9EYpOf9x9we-3" value="RabbitMQ" style="rounded=0;whiteSpace=wrap;html=1;dashed=1;labelPosition=center;verticalLabelPosition=middle;align=center;verticalAlign=top;fillColor=#f5f5f5;fontColor=#333333;strokeColor=#666666;" vertex="1" parent="1">
          <mxGeometry x="340" y="270" width="210" height="220" as="geometry" />
        </mxCell>
        <mxCell id="Jra4S1xzF9EYpOf9x9we-7" style="rounded=0;orthogonalLoop=1;jettySize=auto;html=1;entryX=1;entryY=0.75;entryDx=0;entryDy=0;exitX=0;exitY=0.5;exitDx=0;exitDy=0;" edge="1" parent="1" source="Jra4S1xzF9EYpOf9x9we-5" target="Jra4S1xzF9EYpOf9x9we-1">
          <mxGeometry relative="1" as="geometry">
            <mxPoint x="280" y="430" as="targetPoint" />
          </mxGeometry>
        </mxCell>
        <mxCell id="Jra4S1xzF9EYpOf9x9we-6" style="rounded=0;orthogonalLoop=1;jettySize=auto;html=1;entryX=0;entryY=0.5;entryDx=0;entryDy=0;exitX=1;exitY=0.25;exitDx=0;exitDy=0;" edge="1" parent="1" source="Jra4S1xzF9EYpOf9x9we-1" target="Jra4S1xzF9EYpOf9x9we-4">
          <mxGeometry relative="1" as="geometry">
            <mxPoint x="310" y="390" as="targetPoint" />
          </mxGeometry>
        </mxCell>
        <mxCell id="Jra4S1xzF9EYpOf9x9we-2" value="ShippingService" style="rounded=1;whiteSpace=wrap;html=1;fillColor=#fff2cc;strokeColor=#d6b656;verticalAlign=middle;" vertex="1" parent="1">
          <mxGeometry x="680" y="320" width="120" height="120" as="geometry" />
        </mxCell>
        <mxCell id="Jra4S1xzF9EYpOf9x9we-4" value="shipping-requests" style="shape=process;whiteSpace=wrap;html=1;backgroundOutline=1;fillColor=#ffe6cc;strokeColor=#d79b00;" vertex="1" parent="1">
          <mxGeometry x="362" y="320" width="166" height="30" as="geometry" />
        </mxCell>
        <mxCell id="Jra4S1xzF9EYpOf9x9we-5" value="shippings" style="shape=process;whiteSpace=wrap;html=1;backgroundOutline=1;fillColor=#ffe6cc;strokeColor=#d79b00;" vertex="1" parent="1">
          <mxGeometry x="362" y="420" width="168" height="30" as="geometry" />
        </mxCell>
        <mxCell id="Jra4S1xzF9EYpOf9x9we-8" style="rounded=0;orthogonalLoop=1;jettySize=auto;html=1;entryX=1;entryY=0.5;entryDx=0;entryDy=0;exitX=0;exitY=0.75;exitDx=0;exitDy=0;" edge="1" parent="1" source="Jra4S1xzF9EYpOf9x9we-2" target="Jra4S1xzF9EYpOf9x9we-5">
          <mxGeometry relative="1" as="geometry">
            <mxPoint x="372" y="445" as="sourcePoint" />
            <mxPoint x="230" y="420" as="targetPoint" />
          </mxGeometry>
        </mxCell>
        <mxCell id="Jra4S1xzF9EYpOf9x9we-9" style="rounded=0;orthogonalLoop=1;jettySize=auto;html=1;entryX=0;entryY=0.25;entryDx=0;entryDy=0;exitX=1;exitY=0.5;exitDx=0;exitDy=0;" edge="1" parent="1" source="Jra4S1xzF9EYpOf9x9we-4" target="Jra4S1xzF9EYpOf9x9we-2">
          <mxGeometry relative="1" as="geometry">
            <mxPoint x="260" y="370" as="sourcePoint" />
            <mxPoint x="372" y="345" as="targetPoint" />
          </mxGeometry>
        </mxCell>
        <mxCell id="Jra4S1xzF9EYpOf9x9we-11" style="edgeStyle=orthogonalEdgeStyle;rounded=0;orthogonalLoop=1;jettySize=auto;html=1;" edge="1" parent="1" source="Jra4S1xzF9EYpOf9x9we-14" target="Jra4S1xzF9EYpOf9x9we-1">
          <mxGeometry relative="1" as="geometry">
            <mxPoint x="160" y="250" as="sourcePoint" />
          </mxGeometry>
        </mxCell>
        <mxCell id="Jra4S1xzF9EYpOf9x9we-13" style="edgeStyle=orthogonalEdgeStyle;rounded=0;orthogonalLoop=1;jettySize=auto;html=1;" edge="1" parent="1" source="Jra4S1xzF9EYpOf9x9we-21" target="Jra4S1xzF9EYpOf9x9we-2">
          <mxGeometry relative="1" as="geometry">
            <mxPoint x="739.9655172413793" y="290" as="sourcePoint" />
          </mxGeometry>
        </mxCell>
        <mxCell id="Jra4S1xzF9EYpOf9x9we-14" value="" style="ellipse;whiteSpace=wrap;html=1;aspect=fixed;" vertex="1" parent="1">
          <mxGeometry x="145" y="260" width="30" height="30" as="geometry" />
        </mxCell>
        <mxCell id="Jra4S1xzF9EYpOf9x9we-19" value="New Order" style="text;html=1;strokeColor=none;fillColor=none;align=center;verticalAlign=middle;whiteSpace=wrap;rounded=0;" vertex="1" parent="1">
          <mxGeometry x="117.5" y="230" width="85" height="30" as="geometry" />
        </mxCell>
        <mxCell id="Jra4S1xzF9EYpOf9x9we-20" value="Update Product Count" style="text;html=1;strokeColor=none;fillColor=none;align=center;verticalAlign=middle;whiteSpace=wrap;rounded=0;" vertex="1" parent="1">
          <mxGeometry x="677.5" y="230" width="125" height="30" as="geometry" />
        </mxCell>
        <mxCell id="Jra4S1xzF9EYpOf9x9we-21" value="" style="ellipse;whiteSpace=wrap;html=1;aspect=fixed;" vertex="1" parent="1">
          <mxGeometry x="725" y="260" width="30" height="30" as="geometry" />
        </mxCell>
        <mxCell id="Jra4S1xzF9EYpOf9x9we-23" value="1" style="shape=hexagon;perimeter=hexagonPerimeter2;whiteSpace=wrap;html=1;fixedSize=1;size=10;fillColor=#000000;fontColor=#FFFFFF;" vertex="1" parent="1">
          <mxGeometry x="77.5" y="230" width="40" height="30" as="geometry" />
        </mxCell>
        <mxCell id="Jra4S1xzF9EYpOf9x9we-24" value="2" style="shape=hexagon;perimeter=hexagonPerimeter2;whiteSpace=wrap;html=1;fixedSize=1;size=10;fillColor=#000000;fontColor=#FFFFFF;" vertex="1" parent="1">
          <mxGeometry x="230" y="310" width="40" height="30" as="geometry" />
        </mxCell>
        <mxCell id="Jra4S1xzF9EYpOf9x9we-25" value="3" style="shape=hexagon;perimeter=hexagonPerimeter2;whiteSpace=wrap;html=1;fixedSize=1;size=10;fillColor=#000000;fontColor=#FFFFFF;" vertex="1" parent="1">
          <mxGeometry x="802.5" y="365" width="40" height="30" as="geometry" />
        </mxCell>
        <mxCell id="Jra4S1xzF9EYpOf9x9we-26" value="4" style="shape=hexagon;perimeter=hexagonPerimeter2;whiteSpace=wrap;html=1;fixedSize=1;size=10;fillColor=#000000;fontColor=#FFFFFF;" vertex="1" parent="1">
          <mxGeometry x="620" y="430" width="40" height="30" as="geometry" />
        </mxCell>
        <mxCell id="Jra4S1xzF9EYpOf9x9we-27" value="5" style="shape=hexagon;perimeter=hexagonPerimeter2;whiteSpace=wrap;html=1;fixedSize=1;size=10;fillColor=#000000;fontColor=#FFFFFF;" vertex="1" parent="1">
          <mxGeometry x="50" y="400" width="40" height="30" as="geometry" />
        </mxCell>
        <mxCell id="Jra4S1xzF9EYpOf9x9we-29" value="- Products&lt;br&gt;- Shipping&#39;s" style="text;html=1;strokeColor=none;fillColor=none;align=left;verticalAlign=middle;whiteSpace=wrap;rounded=0;" vertex="1" parent="1">
          <mxGeometry x="850" y="365" width="100" height="30" as="geometry" />
        </mxCell>
        <mxCell id="Jra4S1xzF9EYpOf9x9we-30" value="- Orders" style="text;html=1;strokeColor=none;fillColor=none;align=center;verticalAlign=middle;whiteSpace=wrap;rounded=0;" vertex="1" parent="1">
          <mxGeometry x="-10" y="400" width="60" height="30" as="geometry" />
        </mxCell>
      </root>
    </mxGraphModel>
  </diagram>
</mxfile>
